<svg width="20" height="20" viewBox="0 0 20 20" fill="none" xmlns="http://www.w3.org/2000/svg">
<mask id="mask0_522_13" style="mask-type:alpha" maskUnits="userSpaceOnUse" x="0" y="0" width="20" height="19">
<path d="M12.1973 6.9248L12.209 6.95996H19.3564L13.6035 11.1396L13.5742 11.1611L13.585 11.1953L15.7822 17.959L10.0293 13.7793L10 13.7578L9.9707 13.7793L4.2168 17.959L6.41504 11.1953L6.42578 11.1611L6.39648 11.1396L0.643555 6.95996H7.79102L7.80273 6.9248L10 0.162109L12.1973 6.9248Z" fill="#FFC446" stroke="black" stroke-width="0.1"/>
</mask>
<g mask="url(#mask0_522_13)">
<path d="M0 -2H10V20H0V-2Z" fill="#FFC446"/>
</g>
<path d="M12.1973 6.9248L12.209 6.95996H19.3564L13.6035 11.1396L13.5742 11.1611L13.585 11.1953L15.7822 17.959L10.0293 13.7793L10 13.7578L9.9707 13.7793L4.2168 17.959L6.41504 11.1953L6.42578 11.1611L6.39648 11.1396L0.643555 6.95996H7.79102L7.80273 6.9248L10 0.162109L12.1973 6.9248Z" stroke="#5E5E5E" stroke-width="0.1"/>
</svg>
